<svg xmlns="http://www.w3.org/2000/svg" width="31.399" height="31.399" viewBox="0 0 31.399 31.399">
  <g id="Group_3" data-name="Group 3" transform="translate(-25.058 -999.223)">
    <path id="Path_2" data-name="Path 2" d="M7.925,10a3.925,3.925,0,1,0,3.925,3.925A3.936,3.936,0,0,0,7.925,10Zm23.549,0A3.925,3.925,0,1,0,35.4,13.925,3.936,3.936,0,0,0,31.474,10ZM19.7,10a3.925,3.925,0,1,0,3.925,3.925A3.936,3.936,0,0,0,19.7,10Z" transform="translate(21.058 1000.998)" fill="#fff"/>
    <path id="Path_3" data-name="Path 3" d="M7.925,10a3.925,3.925,0,1,0,3.925,3.925A3.936,3.936,0,0,0,7.925,10Zm23.549,0A3.925,3.925,0,1,0,35.4,13.925,3.936,3.936,0,0,0,31.474,10ZM19.7,10a3.925,3.925,0,1,0,3.925,3.925A3.936,3.936,0,0,0,19.7,10Z" transform="translate(21.058 989.223)" fill="#fff"/>
    <path id="Path_4" data-name="Path 4" d="M7.925,10a3.925,3.925,0,1,0,3.925,3.925A3.936,3.936,0,0,0,7.925,10Zm23.549,0A3.925,3.925,0,1,0,35.4,13.925,3.936,3.936,0,0,0,31.474,10ZM19.7,10a3.925,3.925,0,1,0,3.925,3.925A3.936,3.936,0,0,0,19.7,10Z" transform="translate(21.058 1012.773)" fill="#fff"/>
  </g>
</svg>
